<svg xmlns="http://www.w3.org/2000/svg" version="1.1" xmlns:xlink="http://www.w3.org/1999/xlink" xmlns:svgjs="http://svgjs.dev/svgjs" width="1000" height="133" viewBox="0 0 1000 133"><g transform="matrix(1,0,0,1,-0.6060606060606233,0.5957471475722684)"><svg viewBox="0 0 396 53" data-background-color="#ffffff" preserveAspectRatio="xMidYMid meet" height="133" width="1000" xmlns="http://www.w3.org/2000/svg" xmlns:xlink="http://www.w3.org/1999/xlink"><g id="tight-bounds" transform="matrix(1,0,0,1,0.2400000000000091,-0.23740299865661996)"><svg viewBox="0 0 395.52 53.47480599731325" height="53.47480599731325" width="395.52"><g><svg viewBox="0 0 406.88967139204226 55.01199999999999" height="53.47480599731325" width="395.52"><g><svg viewBox="0 0 406.88967139204226 55.01199999999999" height="55.01199999999999" width="406.88967139204226"><g id="textblocktransform"><svg viewBox="0 0 406.88967139204226 55.01199999999999" height="55.01199999999999" width="406.88967139204226" id="textblock"><g><svg viewBox="0 0 406.88967139204226 55.01199999999999" height="55.01199999999999" width="406.88967139204226"><g><svg><g></g><g></g></svg></g><g><svg><g><svg></svg></g><g></g></svg></g><g id="text-0"><svg viewBox="0 0 406.88967139204226 55.01199999999999" height="55.01199999999999" width="406.88967139204226"><g transform="matrix(1,0,0,1,0,10.405999999999999)"><svg width="161.15" viewBox="1.85 -33.5 161.13 34" height="34" data-palette-color="#000000"><path d="M23.75-16.9L23.75-17.4 30.9-17.4 30.9-16.9 30.65-16.9Q30.25-16.9 29.95-16.63 29.65-16.35 29.45-15.95 29.25-15.55 29.13-15.1 29-14.65 29-14.3L29-14.3 29-0.9Q28.1-0.55 26.95-0.3 25.8-0.05 24.55 0.13 23.3 0.3 22 0.4 20.7 0.5 19.6 0.5L19.6 0.5Q15.1 0.5 11.75-1 8.4-2.5 6.2-4.93 4-7.35 2.93-10.4 1.85-13.45 1.85-16.55L1.85-16.55Q1.85-19.65 2.93-22.7 4-25.75 6.23-28.15 8.45-30.55 11.83-32.02 15.2-33.5 19.85-33.5L19.85-33.5Q21.6-33.5 23.1-33.2 24.6-32.9 25.75-32.65L25.75-32.65Q26.4-32.5 26.88-32.38 27.35-32.25 27.7-32.25L27.7-32.25 28.15-32.25 28.15-26.95 27.65-26.95Q27.35-28.5 26.48-29.45 25.6-30.4 24.45-30.9 23.3-31.4 22.03-31.58 20.75-31.75 19.65-31.75L19.65-31.75Q15.9-31.75 13.15-30.43 10.4-29.1 8.65-27 6.9-24.9 6.05-22.28 5.2-19.65 5.2-17.05L5.2-17.05Q5.2-14.15 6.3-11.33 7.4-8.5 9.4-6.28 11.4-4.05 14.23-2.68 17.05-1.3 20.5-1.3L20.5-1.3Q21.45-1.3 22.85-1.53 24.25-1.75 25.65-2.55L25.65-2.55 25.65-14.3Q25.65-14.65 25.55-15.1 25.45-15.55 25.23-15.95 25-16.35 24.7-16.63 24.4-16.9 24-16.9L24-16.9 23.75-16.9ZM48.8-20.4L47.3-17.35Q46.7-18.35 46.05-18.6 45.4-18.85 44.55-18.85L44.55-18.85Q44-18.85 43.37-18.6 42.75-18.35 42.15-17.95 41.55-17.55 40.97-17.07 40.4-16.6 40-16.2L40-16.2 40-3.2Q40-2.8 40.1-2.35 40.2-1.9 40.42-1.48 40.65-1.05 40.92-0.78 41.2-0.5 41.6-0.5L41.6-0.5 41.6 0 35.1 0 35.1-0.5Q35.45-0.5 35.75-0.78 36.05-1.05 36.27-1.48 36.5-1.9 36.6-2.35 36.7-2.8 36.7-3.2L36.7-3.2 36.7-17.15Q36.7-17.85 36.25-18.55 35.8-19.25 34.95-19.45L34.95-19.45 34.95-19.85 40-21.35 40-18.35Q40.45-18.9 40.95-19.43 41.45-19.95 42.07-20.38 42.7-20.8 43.45-21.08 44.2-21.35 45.2-21.35L45.2-21.35Q45.9-21.35 47-21.05 48.1-20.75 48.8-20.4L48.8-20.4ZM70 0L65.15 0 65.15-2.55 64.9-2.3Q63.65-1.05 62.02-0.35 60.4 0.35 58.1 0.35L58.1 0.35Q56.35 0.35 55.1-0.05 53.85-0.45 53.05-1.18 52.25-1.9 51.87-2.85 51.5-3.8 51.5-4.85L51.5-4.85Q51.5-6.55 52.42-7.85 53.35-9.15 55.1-10.15 56.85-11.15 59.37-11.98 61.9-12.8 65.15-13.6L65.15-13.6Q65.05-15.55 64.35-16.75 63.65-17.95 62.7-18.63 61.75-19.3 60.7-19.53 59.65-19.75 58.9-19.75L58.9-19.75Q57.6-19.75 56.62-19.35 55.65-18.95 54.92-18.32 54.2-17.7 53.7-16.98 53.2-16.25 52.9-15.6L52.9-15.6 52.45-15.6 52.45-19.25Q52.85-19.3 53.2-19.5 53.55-19.7 54.05-19.9L54.05-19.9Q54.8-20.2 56.1-20.78 57.4-21.35 59.75-21.35L59.75-21.35Q62.5-21.35 64.2-20.65 65.9-19.95 66.82-18.8 67.75-17.65 68.05-16.18 68.35-14.7 68.35-13.15L68.35-13.15 68.35-3.25Q68.35-2.25 68.8-1.38 69.25-0.5 70-0.5L70-0.5 70 0ZM64.6-4.15L65.15-4.75 65.15-11.9 64.65-11.8Q63.45-11.5 61.72-11 60-10.5 58.45-9.7 56.9-8.9 55.8-7.8 54.7-6.7 54.7-5.25L54.7-5.25Q54.7-3.65 56-2.6 57.3-1.55 59.4-1.55L59.4-1.55Q61.05-1.55 62.3-2.27 63.55-3 64.6-4.15L64.6-4.15ZM93.24-5.7L93.24-1.8Q92.84-1.8 92.49-1.63 92.14-1.45 91.69-1.2L91.69-1.2Q90.84-0.7 89.54-0.18 88.24 0.35 86.14 0.35L86.14 0.35Q83.59 0.35 81.42-0.48 79.24-1.3 77.67-2.78 76.09-4.25 75.22-6.23 74.34-8.2 74.34-10.5L74.34-10.5Q74.34-12.65 75.12-14.6 75.89-16.55 77.34-18.05 78.79-19.55 80.92-20.45 83.04-21.35 85.74-21.35L85.74-21.35Q87.59-21.35 88.74-20.93 89.89-20.5 90.69-20.1L90.69-20.1Q91.14-19.85 91.57-19.7 91.99-19.55 92.44-19.55L92.44-19.55 92.44-15.75 91.94-15.75Q91.69-16.7 91.04-17.43 90.39-18.15 89.54-18.65 88.69-19.15 87.69-19.4 86.69-19.65 85.74-19.65L85.74-19.65Q83.69-19.65 82.14-18.93 80.59-18.2 79.59-17.03 78.59-15.85 78.09-14.35 77.59-12.85 77.59-11.25L77.59-11.25Q77.59-9.4 78.19-7.63 78.79-5.85 79.92-4.45 81.04-3.05 82.64-2.2 84.24-1.35 86.24-1.35L86.24-1.35Q87.64-1.35 88.82-1.75 89.99-2.15 90.82-2.8 91.64-3.45 92.14-4.23 92.64-5 92.74-5.7L92.74-5.7 93.24-5.7ZM103.79 0L97.29 0 97.29-0.5Q97.69-0.5 97.99-0.8 98.29-1.1 98.49-1.5 98.69-1.9 98.79-2.38 98.89-2.85 98.89-3.25L98.89-3.25 98.89-17.1Q98.89-17.95 98.64-18.73 98.39-19.5 97.19-19.55L97.19-19.55 97.19-20 102.19-21.6 102.19-3.25Q102.19-2.85 102.29-2.38 102.39-1.9 102.59-1.5 102.79-1.1 103.09-0.8 103.39-0.5 103.79-0.5L103.79-0.5 103.79 0ZM97.54-26.4L97.54-26.4Q97.54-27.4 98.22-28.1 98.89-28.8 99.89-28.8L99.89-28.8Q100.89-28.8 101.59-28.1 102.29-27.4 102.29-26.4L102.29-26.4Q102.29-25.4 101.59-24.75 100.89-24.1 99.89-24.1L99.89-24.1Q98.89-24.1 98.22-24.75 97.54-25.4 97.54-26.4ZM129.24-10.1L111.89-10.1Q112.09-8.35 112.74-6.78 113.39-5.2 114.46-4 115.54-2.8 117.09-2.08 118.64-1.35 120.69-1.35L120.69-1.35Q121.79-1.35 123.01-1.68 124.24-2 125.29-2.6 126.34-3.2 127.16-4.08 127.99-4.95 128.29-6.05L128.29-6.05 128.74-6.05 128.74-2.3Q128.44-2.3 128.06-2.1 127.69-1.9 127.19-1.6L127.19-1.6Q126.19-1 124.49-0.33 122.79 0.35 119.99 0.35L119.99 0.35Q117.74 0.35 115.71-0.3 113.69-0.95 112.14-2.3 110.59-3.65 109.66-5.75 108.74-7.85 108.74-10.75L108.74-10.75Q108.74-12.6 109.36-14.5 109.99-16.4 111.26-17.93 112.54-19.45 114.54-20.4 116.54-21.35 119.34-21.35L119.34-21.35Q121.84-21.35 123.71-20.5 125.59-19.65 126.81-18.15 128.04-16.65 128.64-14.6 129.24-12.55 129.24-10.1L129.24-10.1ZM119.14-19.7L119.14-19.7Q117.39-19.7 116.11-19 114.84-18.3 113.94-17.2 113.04-16.1 112.54-14.7 112.04-13.3 111.89-11.9L111.89-11.9 126.14-11.9Q126.09-13.35 125.61-14.75 125.14-16.15 124.29-17.25 123.44-18.35 122.14-19.03 120.84-19.7 119.14-19.7ZM140.14 0L133.59 0 133.59-0.5Q133.99-0.5 134.29-0.8 134.59-1.1 134.81-1.5 135.04-1.9 135.14-2.38 135.24-2.85 135.24-3.25L135.24-3.25 135.24-28.85Q135.24-29.7 134.99-30.45 134.74-31.2 133.49-31.25L133.49-31.25 133.49-31.75 138.54-33.3 138.54-3.25Q138.54-2.85 138.64-2.38 138.74-1.9 138.96-1.5 139.19-1.1 139.46-0.8 139.74-0.5 140.14-0.5L140.14-0.5 140.14 0ZM162.98 0L158.13 0 158.13-2.55 157.88-2.3Q156.63-1.05 155.01-0.35 153.38 0.35 151.08 0.35L151.08 0.35Q149.33 0.35 148.08-0.05 146.83-0.45 146.03-1.18 145.23-1.9 144.86-2.85 144.48-3.8 144.48-4.85L144.48-4.85Q144.48-6.55 145.41-7.85 146.33-9.15 148.08-10.15 149.83-11.15 152.36-11.98 154.88-12.8 158.13-13.6L158.13-13.6Q158.03-15.55 157.33-16.75 156.63-17.95 155.68-18.63 154.73-19.3 153.68-19.53 152.63-19.75 151.88-19.75L151.88-19.75Q150.58-19.75 149.61-19.35 148.63-18.95 147.91-18.32 147.18-17.7 146.68-16.98 146.18-16.25 145.88-15.6L145.88-15.6 145.43-15.6 145.43-19.25Q145.83-19.3 146.18-19.5 146.53-19.7 147.03-19.9L147.03-19.9Q147.78-20.2 149.08-20.78 150.38-21.35 152.73-21.35L152.73-21.35Q155.48-21.35 157.18-20.65 158.88-19.95 159.81-18.8 160.73-17.65 161.03-16.18 161.33-14.7 161.33-13.15L161.33-13.15 161.33-3.25Q161.33-2.25 161.78-1.38 162.23-0.5 162.98-0.5L162.98-0.5 162.98 0ZM157.58-4.15L158.13-4.75 158.13-11.9 157.63-11.8Q156.43-11.5 154.71-11 152.98-10.5 151.43-9.7 149.88-8.9 148.78-7.8 147.68-6.7 147.68-5.25L147.68-5.25Q147.68-3.65 148.98-2.6 150.28-1.55 152.38-1.55L152.38-1.55Q154.03-1.55 155.28-2.27 156.53-3 157.58-4.15L157.58-4.15Z" opacity="1" transform="matrix(1,0,0,1,0,0)" fill="#000000" class="undefined-yy-0"></path></svg></g><g><svg xmlns="http://www.w3.org/2000/svg" xmlns:xlink="http://www.w3.org/1999/xlink" version="1.1" x="174.138" y="0" viewBox="3.9526652267919324 7 91.57334773208069 85.8" style="enable-background:new 0 0 100 100;" xml:space="preserve" height="55.01199999999999" width="58.71367139204222" class="icon-cg-0" data-fill-palette-color="accent" id="cg-0"><path d="M81.7 92.8c-0.8 0-2.5-1.9-10.2-11.2-3.6-4.3-7.3-8.8-8.3-9.7-0.5-0.4-2.2-1.5-7.4-4.1-0.2-0.1-0.4-0.2-0.4-0.2v0c-3.9-2.4-10-6.8-14.8-13.5-2.1-2.9-3.8-6.5-5.5-11.3-0.9-2.7-1.6-5.5-2-8.2-0.3-1.8-0.6-3.8-0.9-5.9 0 0 0-0.1 0-0.1l0-0.1c-0.1-0.7-0.2-1.4-0.4-2.1-0.4-2.2-1-4.8-2.6-7-1-1.4-2.6-2.2-4.2-2.9l0 0c-3.1-1.5-6.3-2.6-9.5-3.8-0.8-0.3-1.7-0.6-2.5-0.9-1.1-0.4-2.2-0.8-3.4-1.1-1.5-0.5-3.1-1-4.6-1.6C4.9 9.1 4.7 9 4.6 8.9 3.9 8.5 3.9 8 4 7.6 4.1 7.4 4.4 7 5.1 7c0.2 0 0.3 0 0.4 0 0.5 0 0.9 0.1 1.4 0.2 1.8 0.4 3.6 0.8 5.4 1.2 2.2 0.5 4.4 1 6.7 1.5 0.5 0.1 1.4 0.3 2.5 0.6 2.9 0.8 7.2 1.9 8.7 1.8 1.6-0.2 2.6-0.5 3.8-1 1.1-0.4 2.1-0.8 3.7-1.1 0.1 0 2.2-0.3 4.8 0.1 5.2 0.8 9.1 3.9 10.3 8.2 0.6 1.9 0.8 4 0.7 6.5 0 1.2 0.7 2.3 1.8 2.9 3.5-4.3 15-16.2 35-12.5 0.4 0.1 0.8 0.4 1 0.8 0.2 0.4 0.2 0.9-0.1 1.3-1.3 2.2-4.9 7.8-10.8 12.6 5.1 1.8 10.1 4.9 14.7 9.3 0.3 0.3 0.5 0.8 0.4 1.3-0.1 0.5-0.3 0.9-0.8 1.1-3.3 1.7-11.8 5.6-22.2 6.1 8.1 12.3 9.6 24.8 9.9 28.4l0 0.1c0.2 1.5 0.9 14.8-0.4 16.2C82.1 92.7 81.9 92.8 81.7 92.8zM81.8 91.7L81.8 91.7 81.8 91.7zM56.3 66.8C56.3 66.8 56.3 66.8 56.3 66.8c4.2 2.2 6.8 3.6 7.6 4.3 1.1 0.9 4.7 5.2 8.5 9.8 3.3 4.1 7.8 9.5 9.2 10.7 0.5-2.1 0.3-11.7 0-15.1 0 0 0-0.1 0-0.2-0.3-3.6-1.8-16.3-10.2-28.6-5.2 0-10.3-1.1-15.2-3.3-0.3-0.1-0.4-0.4-0.3-0.7 0.1-0.3 0.4-0.2 0.7-0.1 4.9 2.1 10 3.4 15.2 3.4 0 0 0 0 0 0 0.2 0 0.3-0.1 0.4 0 10.4-0.4 19-4.4 22.3-6.1 0.1-0.1 0.2-0.3 0.2-0.3 0-0.1 0-0.3-0.1-0.3-4.8-4.5-9.9-7.6-15.1-9.4-9.3-3.1-17.5-1.7-21.6-0.6-0.1 0-0.2 0-0.2 0-2.9 0.8-4.6 1.6-4.6 1.6-0.3 0.1-0.6 0-0.7-0.2-0.1-0.3 0-0.6 0.2-0.7 0.1 0 1.4-0.7 3.7-1.4-0.2-0.1-0.4-0.2-0.7-0.3-0.1 0-0.1 0-0.1-0.1-1.7-0.8-2.8-2.4-2.8-4.1 0.1-2.3-0.2-4.3-0.7-6.1-1.1-3.9-4.7-6.6-9.5-7.4-2.4-0.4-4.4-0.1-4.4-0.1-1.5 0.3-2.5 0.7-3.5 1-1.2 0.4-2.4 0.9-4.1 1-1.7 0.2-6-1-9.1-1.8-1-0.3-1.9-0.5-2.4-0.6-2.2-0.5-4.5-1-6.7-1.5C10.3 9 8.5 8.6 6.7 8.2 6.3 8.1 5.9 8.1 5.5 8.1c0 0 0 0-0.1 0 0 0 0.1 0 0.1 0C7 8.7 8.6 9.2 10.1 9.7c1.1 0.4 2.3 0.7 3.4 1.1 0.8 0.3 1.7 0.6 2.5 0.9 3.2 1.1 6.5 2.3 9.6 3.8l0 0c1.7 0.8 3.4 1.6 4.6 3.3 1.7 2.3 2.3 5 2.8 7.4 0.1 0.7 0.2 1.4 0.4 2.1 0.4 0.7 0.8 1.3 1.3 1.9 0.3 0.5 0.6 0.9 0.9 1.4 1.9 2.8 4.3 5.3 6.6 7.7 0.3 0.3 0.6 0.6 0.9 0.9 3.5 3.7 6.3 7.2 8.5 10.8 2.4 3.9 3.8 7.8 4.4 12C56.1 64.3 56.3 65.6 56.3 66.8zM33.8 30.9c0.2 1.2 0.4 2.4 0.5 3.5 0.4 2.7 1 5.4 1.9 8 1.6 4.7 3.3 8.2 5.3 11 4.4 6.2 9.7 10.3 13.6 12.7 0-1-0.1-2-0.3-3-0.6-4-2-7.8-4.3-11.6-2.1-3.5-4.9-7-8.3-10.6-0.3-0.3-0.6-0.6-0.9-0.9-2.4-2.4-4.8-5-6.7-7.9C34.4 31.7 34.1 31.3 33.8 30.9zM67.6 27.9c3.5 0 7.5 0.5 11.7 1.8 6.1-4.8 9.8-10.5 11.1-12.8 0.1-0.1 0-0.2 0-0.3 0 0-0.1-0.1-0.2-0.2-19.1-3.5-30.3 7.6-33.8 12 0.4 0.2 0.9 0.4 1.3 0.7 0 0 0 0 0.1 0C59.9 28.5 63.4 27.9 67.6 27.9z" fill="#000000" data-fill-palette-color="accent"></path></svg></g><g transform="matrix(1,0,0,1,245.83967139204222,10.605999999999993)"><svg width="161.05" viewBox="2.15 -33.3 161.04 33.65" height="33.650000000000006" data-palette-color="#000000"><path d="M2.25 0L2.25-0.5 2.5-0.5Q2.85-0.5 3.15-0.8 3.45-1.1 3.68-1.5 3.9-1.9 4-2.38 4.1-2.85 4.1-3.25L4.1-3.25 4.1-29.85Q4.1-30.2 4-30.65 3.9-31.1 3.68-31.53 3.45-31.95 3.13-32.23 2.8-32.5 2.4-32.5L2.4-32.5 2.15-32.5 2.15-33 10.35-33Q15-33 17.63-30.95 20.25-28.9 20.25-25.5L20.25-25.5Q20.25-24.05 19.75-22.9 19.25-21.75 18.48-20.85 17.7-19.95 16.8-19.33 15.9-18.7 15.1-18.3L15.1-18.3Q17.2-17.9 18.6-16.95 20-16 20.88-14.78 21.75-13.55 22.1-12.15 22.45-10.75 22.45-9.4L22.45-9.4Q22.45-6.8 21.5-5.03 20.55-3.25 18.98-2.13 17.4-1 15.38-0.5 13.35 0 11.2 0L11.2 0 2.25 0ZM19.05-8.55L19.05-9.1Q18.65-12.95 16.45-15.05 14.25-17.15 10.25-17.15L10.25-17.15 7.45-17.15 7.45-1.65 10.35-1.65Q14.4-1.65 16.73-3.48 19.05-5.3 19.05-8.55L19.05-8.55ZM17-24.7L17-25.05Q16.85-27.95 14.98-29.65 13.1-31.35 9.95-31.35L9.95-31.35 7.45-31.35 7.45-18.75 10.05-18.75Q12.15-18.75 13.48-19.3 14.8-19.85 15.6-20.73 16.4-21.6 16.7-22.65 17-23.7 17-24.7L17-24.7ZM40.4-20.4L38.9-17.35Q38.3-18.35 37.65-18.6 37-18.85 36.15-18.85L36.15-18.85Q35.6-18.85 34.97-18.6 34.35-18.35 33.75-17.95 33.15-17.55 32.57-17.07 32-16.6 31.6-16.2L31.6-16.2 31.6-3.2Q31.6-2.8 31.7-2.35 31.8-1.9 32.02-1.48 32.25-1.05 32.52-0.78 32.8-0.5 33.2-0.5L33.2-0.5 33.2 0 26.7 0 26.7-0.5Q27.05-0.5 27.35-0.78 27.65-1.05 27.87-1.48 28.1-1.9 28.2-2.35 28.3-2.8 28.3-3.2L28.3-3.2 28.3-17.15Q28.3-17.85 27.85-18.55 27.4-19.25 26.55-19.45L26.55-19.45 26.55-19.85 31.6-21.35 31.6-18.35Q32.05-18.9 32.55-19.43 33.05-19.95 33.67-20.38 34.3-20.8 35.05-21.08 35.8-21.35 36.8-21.35L36.8-21.35Q37.5-21.35 38.6-21.05 39.7-20.75 40.4-20.4L40.4-20.4ZM61.59 0L56.75 0 56.75-2.55 56.5-2.3Q55.25-1.05 53.62-0.35 52 0.35 49.7 0.35L49.7 0.35Q47.95 0.35 46.7-0.05 45.45-0.45 44.65-1.18 43.84-1.9 43.47-2.85 43.09-3.8 43.09-4.85L43.09-4.85Q43.09-6.55 44.02-7.85 44.95-9.15 46.7-10.15 48.45-11.15 50.97-11.98 53.5-12.8 56.75-13.6L56.75-13.6Q56.65-15.55 55.95-16.75 55.25-17.95 54.3-18.63 53.34-19.3 52.3-19.53 51.25-19.75 50.5-19.75L50.5-19.75Q49.2-19.75 48.22-19.35 47.25-18.95 46.52-18.32 45.8-17.7 45.3-16.98 44.8-16.25 44.5-15.6L44.5-15.6 44.05-15.6 44.05-19.25Q44.45-19.3 44.8-19.5 45.15-19.7 45.65-19.9L45.65-19.9Q46.4-20.2 47.7-20.78 49-21.35 51.34-21.35L51.34-21.35Q54.09-21.35 55.8-20.65 57.5-19.95 58.42-18.8 59.34-17.65 59.65-16.18 59.95-14.7 59.95-13.15L59.95-13.15 59.95-3.25Q59.95-2.25 60.4-1.38 60.84-0.5 61.59-0.5L61.59-0.5 61.59 0ZM56.2-4.15L56.75-4.75 56.75-11.9 56.25-11.8Q55.05-11.5 53.32-11 51.59-10.5 50.05-9.7 48.5-8.9 47.4-7.8 46.3-6.7 46.3-5.25L46.3-5.25Q46.3-3.65 47.59-2.6 48.9-1.55 51-1.55L51-1.55Q52.65-1.55 53.9-2.27 55.15-3 56.2-4.15L56.2-4.15ZM86.49-12.9L86.49-3.25Q86.49-2.85 86.59-2.38 86.69-1.9 86.92-1.5 87.14-1.1 87.42-0.8 87.69-0.5 88.09-0.5L88.09-0.5 88.09 0 81.64 0 81.64-0.5Q81.99-0.5 82.29-0.8 82.59-1.1 82.82-1.5 83.04-1.9 83.14-2.38 83.24-2.85 83.24-3.25L83.24-3.25 83.24-12.55Q83.24-14.35 82.74-15.7 82.24-17.05 81.39-17.95 80.54-18.85 79.47-19.28 78.39-19.7 77.29-19.7L77.29-19.7Q76.19-19.7 75.12-19.25 74.04-18.8 73.22-18.07 72.39-17.35 71.87-16.38 71.34-15.4 71.34-14.35L71.34-14.35 71.34-3.25Q71.34-2.85 71.44-2.38 71.54-1.9 71.77-1.5 71.99-1.1 72.27-0.8 72.54-0.5 72.94-0.5L72.94-0.5 72.94 0 66.44 0 66.44-0.5Q66.79-0.5 67.09-0.8 67.39-1.1 67.62-1.5 67.84-1.9 67.94-2.38 68.04-2.85 68.04-3.25L68.04-3.25 68.04-17.05Q68.04-17.9 67.79-18.68 67.54-19.45 66.34-19.5L66.34-19.5 66.34-19.95 71.34-21.55 71.34-18.8Q71.69-19.2 72.24-19.68 72.79-20.15 73.57-20.58 74.34-21 75.37-21.28 76.39-21.55 77.79-21.55L77.79-21.55Q80.14-21.55 81.79-20.75 83.44-19.95 84.49-18.68 85.54-17.4 86.02-15.88 86.49-14.35 86.49-12.9L86.49-12.9ZM113.79 0L108.89 0 108.89-2.2Q108.04-1.25 106.62-0.45 105.19 0.35 103.04 0.35L103.04 0.35Q100.39 0.35 98.42-0.58 96.44-1.5 95.14-3 93.84-4.5 93.22-6.43 92.59-8.35 92.59-10.4L92.59-10.4Q92.59-12.4 93.24-14.38 93.89-16.35 95.19-17.9 96.49-19.45 98.44-20.4 100.39-21.35 102.94-21.35L102.94-21.35Q104.64-21.35 106.29-20.73 107.94-20.1 108.89-19.1L108.89-19.1 108.89-28.85Q108.89-29.7 108.64-30.45 108.39-31.2 107.19-31.25L107.19-31.25 107.19-31.75 112.19-33.3 112.19-3.25Q112.19-2.85 112.29-2.38 112.39-1.9 112.59-1.5 112.79-1.1 113.09-0.8 113.39-0.5 113.79-0.5L113.79-0.5 113.79 0ZM103.39-1.3L103.39-1.3Q104.44-1.3 105.44-1.73 106.44-2.15 107.19-2.88 107.94-3.6 108.42-4.58 108.89-5.55 108.89-6.7L108.89-6.7 108.89-13.55Q108.89-14.95 108.29-16.07 107.69-17.2 106.79-18 105.89-18.8 104.82-19.23 103.74-19.65 102.74-19.65L102.74-19.65Q101.09-19.65 99.79-18.88 98.49-18.1 97.59-16.88 96.69-15.65 96.24-14.13 95.79-12.6 95.79-11.1L95.79-11.1Q95.79-9.35 96.29-7.63 96.79-5.9 97.77-4.53 98.74-3.15 100.14-2.25 101.54-1.35 103.39-1.3ZM136.69 0L131.84 0 131.84-2.55 131.59-2.3Q130.34-1.05 128.71-0.35 127.09 0.35 124.79 0.35L124.79 0.35Q123.04 0.35 121.79-0.05 120.54-0.45 119.74-1.18 118.94-1.9 118.56-2.85 118.19-3.8 118.19-4.85L118.19-4.85Q118.19-6.55 119.11-7.85 120.04-9.15 121.79-10.15 123.54-11.15 126.06-11.98 128.59-12.8 131.84-13.6L131.84-13.6Q131.74-15.55 131.04-16.75 130.34-17.95 129.39-18.63 128.44-19.3 127.39-19.53 126.34-19.75 125.59-19.75L125.59-19.75Q124.29-19.75 123.31-19.35 122.34-18.95 121.61-18.32 120.89-17.7 120.39-16.98 119.89-16.25 119.59-15.6L119.59-15.6 119.14-15.6 119.14-19.25Q119.54-19.3 119.89-19.5 120.24-19.7 120.74-19.9L120.74-19.9Q121.49-20.2 122.79-20.78 124.09-21.35 126.44-21.35L126.44-21.35Q129.19-21.35 130.89-20.65 132.59-19.95 133.51-18.8 134.44-17.65 134.74-16.18 135.04-14.7 135.04-13.15L135.04-13.15 135.04-3.25Q135.04-2.25 135.49-1.38 135.94-0.5 136.69-0.5L136.69-0.5 136.69 0ZM131.29-4.15L131.84-4.75 131.84-11.9 131.34-11.8Q130.14-11.5 128.41-11 126.69-10.5 125.14-9.7 123.59-8.9 122.49-7.8 121.39-6.7 121.39-5.25L121.39-5.25Q121.39-3.65 122.69-2.6 123.99-1.55 126.09-1.55L126.09-1.55Q127.74-1.55 128.99-2.27 130.24-3 131.29-4.15L131.29-4.15ZM161.59-12.9L161.59-3.25Q161.59-2.85 161.69-2.38 161.79-1.9 162.01-1.5 162.24-1.1 162.51-0.8 162.79-0.5 163.19-0.5L163.19-0.5 163.19 0 156.74 0 156.74-0.5Q157.09-0.5 157.39-0.8 157.69-1.1 157.91-1.5 158.14-1.9 158.24-2.38 158.34-2.85 158.34-3.25L158.34-3.25 158.34-12.55Q158.34-14.35 157.84-15.7 157.34-17.05 156.49-17.95 155.64-18.85 154.56-19.28 153.49-19.7 152.39-19.7L152.39-19.7Q151.29-19.7 150.21-19.25 149.14-18.8 148.31-18.07 147.49-17.35 146.96-16.38 146.44-15.4 146.44-14.35L146.44-14.35 146.44-3.25Q146.44-2.85 146.54-2.38 146.64-1.9 146.86-1.5 147.09-1.1 147.36-0.8 147.64-0.5 148.04-0.5L148.04-0.5 148.04 0 141.54 0 141.54-0.5Q141.89-0.5 142.19-0.8 142.49-1.1 142.71-1.5 142.94-1.9 143.04-2.38 143.14-2.85 143.14-3.25L143.14-3.25 143.14-17.05Q143.14-17.9 142.89-18.68 142.64-19.45 141.44-19.5L141.44-19.5 141.44-19.95 146.44-21.55 146.44-18.8Q146.79-19.2 147.34-19.68 147.89-20.15 148.66-20.58 149.44-21 150.46-21.28 151.49-21.55 152.89-21.55L152.89-21.55Q155.24-21.55 156.89-20.75 158.54-19.95 159.59-18.68 160.64-17.4 161.11-15.88 161.59-14.35 161.59-12.9L161.59-12.9Z" opacity="1" transform="matrix(1,0,0,1,0,0)" fill="#000000" class="undefined-yy-1"></path></svg></g></svg></g></svg></g></svg></g></svg></g></svg></g><defs></defs></svg><rect width="395.52" height="53.47480599731325" fill="none" stroke="none" visibility="hidden"></rect></g></svg></g></svg>